<svg width="25" height="25" viewBox="0 0 25 25" fill="none" xmlns="http://www.w3.org/2000/svg">
<path d="M10.5 22.1484H14.5C19.5 22.1484 21.5 20.1484 21.5 15.1484V9.14844C21.5 4.14844 19.5 2.14844 14.5 2.14844H10.5C5.5 2.14844 3.5 4.14844 3.5 9.14844V15.1484C3.5 20.1484 5.5 22.1484 10.5 22.1484Z" stroke="#F5F5F5" strokeWidth="1.5" strokeLinecap="round" strokeLinejoin="round"/>
<path d="M17 7.72656V8.72656C17 9.54656 16.33 10.2266 15.5 10.2266H9.5C8.68 10.2266 8 9.55656 8 8.72656V7.72656C8 6.90656 8.67 6.22656 9.5 6.22656H15.5C16.33 6.22656 17 6.89656 17 7.72656Z" stroke="#F5F5F5" strokeWidth="1.5" strokeLinecap="round" strokeLinejoin="round"/>
<path d="M8.63574 14.1484H8.64774M12.4947 14.1484H12.5067M16.3537 14.1484H16.3657M8.63574 17.6484H8.64774M12.4947 17.6484H12.5067M16.3537 17.6484H16.3657" stroke="#F5F5F5" strokeWidth="2" strokeLinecap="round" strokeLinejoin="round"/>
</svg>
