<svg width="25" height="25" viewBox="0 0 25 25" fill="none" xmlns="http://www.w3.org/2000/svg">
<path d="M8.5 5.89844C8.09 5.89844 7.75 5.55844 7.75 5.14844V2.14844C7.75 1.73844 8.09 1.39844 8.5 1.39844C8.91 1.39844 9.25 1.73844 9.25 2.14844V5.14844C9.25 5.55844 8.91 5.89844 8.5 5.89844ZM16.5 5.89844C16.09 5.89844 15.75 5.55844 15.75 5.14844V2.14844C15.75 1.73844 16.09 1.39844 16.5 1.39844C16.91 1.39844 17.25 1.73844 17.25 2.14844V5.14844C17.25 5.55844 16.91 5.89844 16.5 5.89844ZM9 14.6464C8.87 14.6464 8.74 14.6164 8.62 14.5664C8.49 14.5164 8.39 14.4464 8.29 14.3564C8.11 14.1664 8 13.9164 8 13.6464C8 13.5164 8.03 13.3864 8.08 13.2664C8.13 13.1464 8.2 13.0364 8.29 12.9364C8.39 12.8464 8.49 12.7764 8.62 12.7264C8.98 12.5764 9.43 12.6564 9.71 12.9364C9.89 13.1264 10 13.3864 10 13.6464C10 13.7064 9.99 13.7764 9.98 13.8464C9.97 13.9064 9.95 13.9664 9.92 14.0264C9.9 14.0864 9.87 14.1464 9.83 14.2064C9.8 14.2564 9.75 14.3064 9.71 14.3564C9.52 14.5364 9.26 14.6464 9 14.6464ZM12.5 14.6474C12.37 14.6474 12.24 14.6174 12.12 14.5674C11.99 14.5174 11.89 14.4474 11.79 14.3574C11.61 14.1674 11.5 13.9174 11.5 13.6474C11.5 13.5174 11.53 13.3874 11.58 13.2674C11.63 13.1474 11.7 13.0374 11.79 12.9374C11.89 12.8474 11.99 12.7774 12.12 12.7274C12.48 12.5674 12.93 12.6574 13.21 12.9374C13.39 13.1274 13.5 13.3874 13.5 13.6474C13.5 13.7074 13.49 13.7774 13.48 13.8474C13.47 13.9074 13.45 13.9674 13.42 14.0274C13.4 14.0874 13.37 14.1474 13.33 14.2074C13.3 14.2574 13.25 14.3074 13.21 14.3574C13.02 14.5374 12.76 14.6474 12.5 14.6474ZM16 14.6474C15.87 14.6474 15.74 14.6174 15.62 14.5674C15.49 14.5174 15.39 14.4474 15.29 14.3574L15.17 14.2074C15.1321 14.1517 15.1019 14.0912 15.08 14.0274C15.0511 13.9708 15.0309 13.9101 15.02 13.8474C15.01 13.7774 15 13.7074 15 13.6474C15 13.3874 15.11 13.1274 15.29 12.9374C15.39 12.8474 15.49 12.7774 15.62 12.7274C15.99 12.5674 16.43 12.6574 16.71 12.9374C16.89 13.1274 17 13.3874 17 13.6474C17 13.7074 16.99 13.7774 16.98 13.8474C16.97 13.9074 16.95 13.9674 16.92 14.0274C16.9 14.0874 16.87 14.1474 16.83 14.2074C16.8 14.2574 16.75 14.3074 16.71 14.3574C16.52 14.5374 16.26 14.6474 16 14.6474ZM9 18.1484C8.87 18.1484 8.74 18.1184 8.62 18.0684C8.5 18.0184 8.39 17.9484 8.29 17.8584C8.11 17.6684 8 17.4084 8 17.1484C8 17.0184 8.03 16.8884 8.08 16.7684C8.13 16.6384 8.2 16.5284 8.29 16.4384C8.66 16.0684 9.34 16.0684 9.71 16.4384C9.89 16.6284 10 16.8884 10 17.1484C10 17.4084 9.89 17.6684 9.71 17.8584C9.52 18.0384 9.26 18.1484 9 18.1484ZM12.5 18.1484C12.24 18.1484 11.98 18.0384 11.79 17.8584C11.61 17.6684 11.5 17.4084 11.5 17.1484C11.5 17.0184 11.53 16.8884 11.58 16.7684C11.63 16.6384 11.7 16.5284 11.79 16.4384C12.16 16.0684 12.84 16.0684 13.21 16.4384C13.3 16.5284 13.37 16.6384 13.42 16.7684C13.47 16.8884 13.5 17.0184 13.5 17.1484C13.5 17.4084 13.39 17.6684 13.21 17.8584C13.02 18.0384 12.76 18.1484 12.5 18.1484ZM16 18.1484C15.74 18.1484 15.48 18.0384 15.29 17.8584C15.1975 17.7645 15.1259 17.652 15.08 17.5284C15.0286 17.4083 15.0015 17.2791 15 17.1484C15 17.0184 15.03 16.8884 15.08 16.7684C15.13 16.6384 15.2 16.5284 15.29 16.4384C15.52 16.2084 15.87 16.0984 16.19 16.1684C16.26 16.1784 16.32 16.1984 16.38 16.2284C16.44 16.2484 16.5 16.2784 16.56 16.3184C16.61 16.3484 16.66 16.3984 16.71 16.4384C16.89 16.6284 17 16.8884 17 17.1484C17 17.4084 16.89 17.6684 16.71 17.8584C16.52 18.0384 16.26 18.1484 16 18.1484ZM21 9.98844H4C3.59 9.98844 3.25 9.64844 3.25 9.23844C3.25 8.82844 3.59 8.48844 4 8.48844H21C21.41 8.48844 21.75 8.82844 21.75 9.23844C21.75 9.64844 21.41 9.98844 21 9.98844Z" fill="#F5F5F5"/>
<path d="M16.5 22.8984H8.5C4.85 22.8984 2.75 20.7984 2.75 17.1484V8.64844C2.75 4.99844 4.85 2.89844 8.5 2.89844H16.5C20.15 2.89844 22.25 4.99844 22.25 8.64844V17.1484C22.25 20.7984 20.15 22.8984 16.5 22.8984ZM8.5 4.39844C5.64 4.39844 4.25 5.78844 4.25 8.64844V17.1484C4.25 20.0084 5.64 21.3984 8.5 21.3984H16.5C19.36 21.3984 20.75 20.0084 20.75 17.1484V8.64844C20.75 5.78844 19.36 4.39844 16.5 4.39844H8.5Z" fill="#F5F5F5"/>
</svg>
