<svg width="24" height="25" viewBox="0 0 24 25" fill="none" xmlns="http://www.w3.org/2000/svg">
<path d="M11.5022 22.9041C10.7122 22.9041 9.96219 22.4941 9.44219 21.7941L8.42219 20.4541C8.21219 20.1741 7.93219 20.0141 7.63219 19.9941C7.34219 19.9741 7.03219 20.1141 6.78219 20.3641C5.92219 21.2841 5.08219 21.7241 4.29219 21.7041C3.75219 21.6841 3.28219 21.4441 2.92219 21.0041C2.87757 20.9457 2.84061 20.8818 2.81219 20.8141C2.42219 19.9741 2.24219 18.8341 2.24219 17.1241V7.20406C2.24219 5.49406 2.42219 4.36406 2.81219 3.51406C2.84219 3.45406 2.87219 3.39406 2.92219 3.34406C3.27219 2.89406 3.74219 2.65406 4.28219 2.62406C5.08219 2.59406 5.93219 3.05406 6.77219 3.95406C7.02219 4.22406 7.32219 4.35406 7.62219 4.33406C7.92219 4.31406 8.20219 4.15406 8.41219 3.87406L9.43219 2.52406C9.95219 1.82406 10.7022 1.41406 11.4922 1.41406C12.2822 1.41406 13.0322 1.82406 13.5522 2.52406L14.5622 3.86406C14.7722 4.15406 15.0622 4.31406 15.3722 4.33406C15.6622 4.35406 15.9722 4.21406 16.2222 3.95406C17.0422 3.07406 17.8522 2.62406 18.6322 2.62406C19.1922 2.62406 19.7122 2.87406 20.0722 3.34406C20.1122 3.39406 20.1522 3.45406 20.1822 3.52406C20.5722 4.36406 20.7522 5.50406 20.7522 7.21406V17.1341C20.7522 18.8441 20.5722 19.9741 20.1822 20.8241C20.1422 20.9141 20.0922 20.9941 20.0222 21.0641C19.7122 21.4641 19.2022 21.7141 18.6322 21.7141C17.8522 21.7141 17.0422 21.2641 16.2222 20.3841C15.9822 20.1241 15.6522 19.9841 15.3722 20.0041C15.0622 20.0241 14.7822 20.1841 14.5622 20.4741L13.5522 21.8141C13.0422 22.4941 12.2922 22.9041 11.5022 22.9041ZM7.58219 18.4841H7.71219C8.45219 18.5241 9.14219 18.9141 9.61219 19.5441L10.6322 20.8941C11.1222 21.5541 11.8622 21.5541 12.3522 20.9041L13.3622 19.5641C13.8422 18.9241 14.5422 18.5441 15.2822 18.5041C16.0222 18.4641 16.7622 18.7741 17.3022 19.3541C18.0422 20.1441 18.4922 20.2041 18.6122 20.2041C18.6922 20.2041 18.7622 20.1841 18.8322 20.1241C19.1122 19.4941 19.2322 18.5441 19.2322 17.1241V7.20406C19.2322 5.80406 19.1022 4.85406 18.8322 4.22406C18.8058 4.19151 18.7721 4.16553 18.734 4.14818C18.6958 4.13083 18.6541 4.12257 18.6122 4.12406C18.4922 4.12406 18.0422 4.18406 17.3022 4.97406C16.7622 5.55406 16.0222 5.86406 15.2822 5.82406C14.5322 5.78406 13.8322 5.39406 13.3522 4.76406L12.3422 3.42406C11.8522 2.76406 11.1122 2.76406 10.6222 3.42406L9.60219 4.78406C9.13219 5.41406 8.44219 5.79406 7.70219 5.83406C6.96219 5.87406 6.22219 5.56406 5.68219 4.99406C5.07219 4.33406 4.60219 4.11406 4.34219 4.12406C4.28219 4.12406 4.21219 4.14406 4.13219 4.22406C3.86219 4.85406 3.73219 5.80406 3.73219 7.20406V17.1241C3.73219 18.5341 3.86219 19.4841 4.13219 20.1141C4.22219 20.1941 4.28219 20.2041 4.34219 20.2141C4.59219 20.2241 5.06219 20.0041 5.67219 19.3541C6.20219 18.7841 6.89219 18.4841 7.58219 18.4841Z" fill="#F5F5F5"/>
<path d="M16 11.1484H8C7.59 11.1484 7.25 10.8084 7.25 10.3984C7.25 9.98844 7.59 9.64844 8 9.64844H16C16.41 9.64844 16.75 9.98844 16.75 10.3984C16.75 10.8084 16.41 11.1484 16 11.1484ZM14 14.6484H8C7.59 14.6484 7.25 14.3084 7.25 13.8984C7.25 13.4884 7.59 13.1484 8 13.1484H14C14.41 13.1484 14.75 13.4884 14.75 13.8984C14.75 14.3084 14.41 14.6484 14 14.6484Z" fill="#F5F5F5"/>
</svg>
