<svg width="25" height="26" viewBox="0 0 25 26" fill="none" xmlns="http://www.w3.org/2000/svg">
<path fill-rule="evenodd" clip-rule="evenodd" d="M18.6663 8.88803H18.6143C16.6455 8.82553 15.1768 7.30469 15.1768 5.42969C15.1768 3.51302 16.7393 1.96094 18.6455 1.96094C20.5518 1.96094 22.1143 3.52344 22.1143 5.42969C22.1038 7.31511 20.6351 8.83594 18.7601 8.89844C18.7601 8.88802 18.7601 8.88803 18.7497 8.88803C18.7184 8.88803 18.6976 8.88803 18.6663 8.88803ZM16.7393 5.41928C16.7393 6.45053 17.5413 7.28386 18.5726 7.32553C18.583 7.31511 18.6663 7.31511 18.7601 7.32553C19.7705 7.27345 20.5518 6.44011 20.5622 5.41928C20.5622 4.3672 19.708 3.51303 18.6455 3.51303C17.5934 3.51303 16.7393 4.3672 16.7393 5.41928Z" fill="#F5F5F5"/>
<path d="M17.5424 16.4601C17.1153 16.3872 16.8341 15.981 16.907 15.5539C16.9799 15.1268 17.3862 14.8456 17.8133 14.9185C19.0945 15.1372 20.4487 14.8976 21.3549 14.2935C21.8445 13.9706 22.1049 13.5643 22.1049 13.158C22.1049 12.7518 21.8341 12.356 21.3549 12.033C20.4487 11.4289 19.0737 11.1893 17.782 11.4185C17.3549 11.5018 16.9487 11.2101 16.8758 10.783C16.8028 10.356 17.0841 9.94972 17.5112 9.8768C19.2091 9.57472 20.9695 9.89763 22.2195 10.731C23.1362 11.3455 23.6674 12.2205 23.6674 13.158C23.6674 14.0851 23.1466 14.9706 22.2195 15.5956C21.2716 16.2206 20.0424 16.5643 18.7612 16.5643C18.3549 16.5643 17.9487 16.533 17.5424 16.4601Z" fill="#F5F5F5"/>
<path fill-rule="evenodd" clip-rule="evenodd" d="M6.19889 8.89063C4.32389 8.82813 2.85514 7.30729 2.84473 5.43229C2.84473 3.51562 4.40723 1.95312 6.31348 1.95312C8.21973 1.95312 9.78223 3.51563 9.78223 5.42188C9.78223 7.30729 8.31348 8.82813 6.43848 8.89063L6.21973 8.10938L6.29264 8.89063C6.27181 8.89063 6.24056 8.89063 6.21973 8.89063C6.20931 8.89063 6.19889 8.89063 6.19889 8.89063ZM6.50098 7.33854C7.42806 7.29687 8.24056 6.46354 8.24056 5.43229C8.24056 4.3802 7.3864 3.52604 6.33431 3.52604C5.28223 3.52604 4.42806 4.3802 4.42806 5.43229C4.42806 6.45312 5.21973 7.27604 6.23014 7.33854C6.24056 7.32812 6.28223 7.32813 6.32389 7.32813C6.38639 7.32813 6.43848 7.32812 6.50098 7.33854Z" fill="#F5F5F5"/>
<path d="M2.74967 15.5956C1.83301 14.981 1.30176 14.0955 1.30176 13.158C1.30176 12.231 1.83301 11.3455 2.74967 10.731C3.99967 9.89763 5.76009 9.57472 7.45801 9.8768C7.88509 9.94972 8.16634 10.356 8.09342 10.783C8.02051 11.2101 7.61426 11.5018 7.18718 11.4185C5.89551 11.1893 4.53093 11.4289 3.61426 12.033C3.12468 12.356 2.86426 12.7518 2.86426 13.158C2.86426 13.5643 3.13509 13.9706 3.61426 14.2935C4.52051 14.8976 5.87467 15.1372 7.15592 14.9185C7.58301 14.8456 7.98926 15.1372 8.06218 15.5539C8.13509 15.981 7.85384 16.3872 7.42676 16.4601C7.02051 16.533 6.61426 16.5643 6.20801 16.5643C4.92676 16.5643 3.69759 16.2206 2.74967 15.5956Z" fill="#F5F5F5"/>
<path fill-rule="evenodd" clip-rule="evenodd" d="M12.4163 16.6693H12.3643C10.3955 16.6068 8.92676 15.0859 8.92676 13.2109C8.92676 11.2943 10.4893 9.74219 12.3955 9.74219C14.3018 9.74219 15.8643 11.3047 15.8643 13.2109C15.8538 15.0964 14.3851 16.6172 12.5101 16.6797C12.5101 16.6693 12.5101 16.6693 12.4997 16.6693C12.4684 16.6693 12.4476 16.6693 12.4163 16.6693ZM10.4893 13.2005C10.4893 14.2318 11.2913 15.0651 12.3226 15.1068C12.333 15.0964 12.4163 15.0964 12.5101 15.1068C13.5205 15.0547 14.3018 14.2214 14.3122 13.2005C14.3122 12.1589 13.458 11.2943 12.3955 11.2943C11.3434 11.2943 10.4893 12.1484 10.4893 13.2005Z" fill="#F5F5F5"/>
<path fill-rule="evenodd" clip-rule="evenodd" d="M9.02995 23.3802C8.11328 22.7656 7.58203 21.8906 7.58203 20.9531C7.58203 20.0261 8.10286 19.1302 9.02995 18.5156C10.9779 17.224 14.03 17.224 15.9675 18.5156C16.8841 19.1302 17.4154 20.0052 17.4154 20.9427C17.4154 21.8698 16.8945 22.7656 15.9675 23.3802C14.9987 24.0261 13.7487 24.3594 12.4987 24.3594C11.2487 24.3594 9.9987 24.0365 9.02995 23.3802ZM9.14453 20.9635C9.14453 21.3698 9.41537 21.7656 9.89453 22.0885C11.3008 23.0365 13.6862 23.0365 15.0925 22.0885C15.582 21.7656 15.8424 21.3594 15.8424 20.9531C15.8424 20.5469 15.5716 20.1511 15.0925 19.8281C13.6966 18.8802 11.3112 18.8906 9.89453 19.8281C9.40495 20.1511 9.14453 20.5573 9.14453 20.9635Z" fill="#F5F5F5"/>
</svg>
