<svg width="24" height="24" viewBox="0 0 24 24" fill="none" xmlns="http://www.w3.org/2000/svg">
<g id="fluent:edit-24-regular">
<path id="Vector" d="M20.9524 3.04794C20.2814 2.37696 19.3713 2 18.4224 2C17.4734 2 16.5634 2.37696 15.8924 3.04794L3.94036 14.9999C3.53415 15.4062 3.24856 15.9171 3.11536 16.4759L2.02036 21.0779C1.99071 21.2026 1.99349 21.3328 2.02843 21.456C2.06337 21.5793 2.12931 21.6916 2.21996 21.7821C2.31061 21.8727 2.42295 21.9385 2.54626 21.9733C2.66957 22.0081 2.79974 22.0107 2.92436 21.9809L7.52536 20.8849C8.08454 20.7519 8.59584 20.4663 9.00236 20.0599L20.9524 8.10994C21.6233 7.43894 22.0003 6.52887 22.0003 5.57994C22.0003 4.63101 21.6233 3.72095 20.9524 3.04994V3.04794ZM16.9524 4.10794C17.1454 3.9149 17.3746 3.76177 17.6268 3.6573C17.879 3.55282 18.1494 3.49905 18.4224 3.49905C18.6954 3.49905 18.9657 3.55282 19.2179 3.6573C19.4701 3.76177 19.6993 3.9149 19.8924 4.10794C20.0854 4.30099 20.2385 4.53016 20.343 4.78239C20.4475 5.03461 20.5012 5.30494 20.5012 5.57794C20.5012 5.85095 20.4475 6.12128 20.343 6.3735C20.2385 6.62572 20.0854 6.8549 19.8924 7.04794L19.0004 7.93894L16.0604 4.99994L16.9524 4.10894V4.10794ZM15.0004 6.06194L17.9404 8.99994L7.94036 18.9999C7.73036 19.2099 7.46636 19.3569 7.17736 19.4259L3.76136 20.2399L4.57436 16.8239C4.64336 16.5339 4.79136 16.2699 5.00136 16.0599L15.0004 6.05994V6.06194Z" fill="#494949"/>
</g>
</svg>
