<svg width="34" height="34" viewBox="0 0 34 34" fill="none" xmlns="http://www.w3.org/2000/svg">
<path d="M30.8908 14.2242H29.7497V14.1654H16.9997V19.832H25.006C23.8379 23.1307 20.6993 25.4987 16.9997 25.4987C12.3056 25.4987 8.49967 21.6928 8.49967 16.9987C8.49967 12.3046 12.3056 8.4987 16.9997 8.4987C19.1665 8.4987 21.1378 9.31611 22.6387 10.6513L26.6458 6.64428C24.1156 4.28624 20.7312 2.83203 16.9997 2.83203C9.17613 2.83203 2.83301 9.17516 2.83301 16.9987C2.83301 24.8222 9.17613 31.1654 16.9997 31.1654C24.8232 31.1654 31.1663 24.8222 31.1663 16.9987C31.1663 16.0488 31.0686 15.1216 30.8908 14.2242Z" fill="#FFC107"/>
<path d="M4.4668 10.4048L9.12125 13.8183C10.3807 10.7002 13.4308 8.4987 17 8.4987C19.1668 8.4987 21.1381 9.31611 22.6391 10.6513L26.6461 6.64428C24.116 4.28624 20.7315 2.83203 17 2.83203C11.5586 2.83203 6.83971 5.90407 4.4668 10.4048Z" fill="#FF3D00"/>
<path d="M16.9996 31.1662C20.6588 31.1662 23.9837 29.7658 26.4976 27.4885L22.113 23.7783C20.6429 24.8963 18.8465 25.501 16.9996 25.4995C13.3148 25.4995 10.1861 23.15 9.00745 19.8711L4.3877 23.4305C6.73228 28.0183 11.4937 31.1662 16.9996 31.1662Z" fill="#4CAF50"/>
<path d="M30.8911 14.2268H29.75V14.168H17V19.8346H25.0063C24.4476 21.4046 23.4411 22.7765 22.1113 23.7808L22.1135 23.7793L26.498 27.4896C26.1878 27.7715 31.1667 24.0846 31.1667 17.0013C31.1667 16.0514 31.0689 15.1242 30.8911 14.2268Z" fill="#1976D2"/>
</svg>
