<svg width="25" height="28" viewBox="0 0 25 28" fill="none" xmlns="http://www.w3.org/2000/svg">
<path d="M24.5 8.15263V11.7212H22.9312V8.78695C22.9312 8.37566 22.7188 7.99439 22.3713 7.77817L22.3702 7.77749C22.3593 7.77067 22.3484 7.76419 22.3372 7.75771L21.4511 7.24615L18.3518 5.45674L17.2186 4.8023L17.2179 4.80264L16.2817 4.26244C15.9141 4.04997 15.4609 4.04997 15.0932 4.26244L14.0868 4.84356L12.5181 5.74901L6.71912 9.09729V7.28572L10.9493 4.84356L12.5181 3.93777L14.1189 3.01357L14.1196 3.01323L13.0941 2.42119C13.0845 2.41573 13.075 2.41028 13.0651 2.4055L13.0593 2.40209C12.6981 2.20941 12.262 2.21555 11.9056 2.42119L10.8985 3.00266L10.8924 2.99925L6.71912 5.40866L5.8164 5.92976C5.78195 5.94954 5.74853 5.97137 5.71681 5.99422C5.71647 5.99456 5.71579 5.9949 5.71545 5.99524C5.68169 6.01945 5.64963 6.04537 5.61928 6.07231C5.3693 6.29535 5.22197 6.6166 5.22197 6.959V11.7212H3.65321V7.18579L2.66284 7.75771C2.6018 7.79283 2.54451 7.83308 2.49164 7.87809C2.22632 8.10113 2.06876 8.43296 2.06876 8.78695V11.7212H0.5V8.15263C0.5 7.64346 0.733268 7.16772 1.12444 6.85601L4.24763 5.05296L6.71912 3.62607V3.60424L10.9306 1.173L10.9428 1.16584L11.6706 0.745686C12.175 0.454442 12.7943 0.449326 13.3025 0.731021L14.0619 1.16925L16.5123 2.58421L18.3518 3.64619L18.7798 3.8931V3.89344L20.6218 4.95679L23.7085 6.7387C24.1992 7.03949 24.5 7.57457 24.5 8.15263Z" fill="#F5F5F5"/>
<path d="M21.3484 9.99697V11.7247H19.7797V10.6313C19.7797 10.2067 19.5529 9.81452 19.1852 9.60205L18.3514 9.12051L14.0615 6.64392L15.6235 5.73438L18.3514 7.30927L19.882 8.1929L20.519 8.56087C21.0323 8.85689 21.3484 9.40459 21.3484 9.99697Z" fill="#F5F5F5"/>
<path d="M24.5 17.8594V20.1371C24.5 20.6463 24.2667 21.1221 23.8756 21.4338L20.7524 23.2368L18.2809 24.6637V24.6855L14.0694 27.1168L14.0572 27.1239L13.3294 27.5441C12.825 27.8353 12.2057 27.8404 11.6975 27.5588L10.9381 27.1205L8.48772 25.7056L6.64818 24.6436L6.22018 24.3967V24.3963L4.37825 23.333L1.29154 21.5511C0.800793 21.2503 0.5 20.7152 0.5 20.1371V17.8594H2.06876V19.5028C2.06876 19.9141 2.28123 20.2954 2.62874 20.5116L2.62976 20.5123C2.64068 20.5191 2.65159 20.5256 2.66284 20.5321L3.54885 21.0436L6.64818 22.833L7.78144 23.4875L7.78212 23.4871L8.71826 24.0273C9.0859 24.2398 9.53913 24.2398 9.90677 24.0273L10.9132 23.4462L12.4819 22.5408L18.2809 19.1925V21.0041L14.0507 23.4462L12.4819 24.352L10.8811 25.2762L10.8804 25.2765L11.9059 25.8686C11.9155 25.874 11.925 25.8795 11.9349 25.8843L11.9407 25.8877C12.3019 26.0804 12.738 26.0742 13.0944 25.8686L14.1015 25.2871L14.1076 25.2905L18.2809 22.8811L19.1836 22.36C19.2181 22.3402 19.2515 22.3184 19.2832 22.2956C19.2835 22.2952 19.2842 22.2949 19.2846 22.2945C19.3183 22.2703 19.3504 22.2444 19.3807 22.2175C19.6307 21.9944 19.778 21.6732 19.778 21.3308V17.8594H21.3468V21.104L22.3372 20.5321C22.3982 20.4969 22.4555 20.4567 22.5084 20.4117C22.7737 20.1886 22.9312 19.8568 22.9312 19.5028V17.8594H24.5Z" fill="#F5F5F5"/>
<path d="M10.9383 21.6493L9.37632 22.5588L6.64838 20.9839L5.11782 20.1003L4.48076 19.7323C3.96751 19.4363 3.65137 18.8886 3.65137 18.2962V17.8594H5.23684C5.29516 18.2055 5.50489 18.5121 5.81455 18.6912L6.64838 19.1727L10.9383 21.6493Z" fill="#F5F5F5"/>
<rect width="10.234" height="10.234" transform="translate(7.40332 9.21094)" fill="#FAA21B"/>
<path d="M15.5054 12.1946C15.5054 12.2713 15.5012 12.3438 15.4926 12.4163C15.4436 13.0161 15.182 13.5786 14.7549 14.0026C14.5184 14.2413 14.2367 14.4306 13.9263 14.5594C13.6159 14.6883 13.283 14.7541 12.9469 14.7531H11.6123C11.399 14.7531 11.22 14.9108 11.1901 15.1198L10.866 17.3713C10.8404 17.5376 10.721 17.674 10.5633 17.7167C10.5249 17.7337 10.4865 17.738 10.4439 17.738H9.61237C9.55045 17.7383 9.48921 17.7251 9.43291 17.6993C9.37662 17.6735 9.32663 17.6358 9.28643 17.5887C9.24624 17.5416 9.2168 17.4863 9.20018 17.4266C9.18357 17.367 9.18016 17.3044 9.19022 17.2433L10.2093 11.1328C10.2586 10.8337 10.4126 10.5618 10.6438 10.3658C10.875 10.1697 11.1684 10.0622 11.4715 10.0625H13.3734C14.5503 10.0625 15.5054 11.0177 15.5054 12.1946Z" fill="#F5F5F5"/>
<path d="M16.3583 13.9044C16.3583 14.4929 16.1195 15.0259 15.7358 15.4139C15.3477 15.7977 14.8147 16.0365 14.2263 16.0365H13.3095C13.208 16.0362 13.1097 16.0721 13.0324 16.1377C12.955 16.2034 12.9036 16.2945 12.8873 16.3947L12.5803 18.2368C12.5641 18.337 12.5126 18.4281 12.4353 18.4937C12.3579 18.5594 12.2596 18.5953 12.1581 18.595H10.9087C10.8372 18.5963 10.7666 18.5786 10.7041 18.5438C10.6103 18.4926 10.67 18.369 10.7723 18.3263C11.1561 18.2027 11.4375 17.8743 11.4972 17.465L11.7701 15.5802C11.7872 15.4736 11.8767 15.3969 11.9791 15.3969H12.947C13.8041 15.3969 14.61 15.0643 15.207 14.463C15.5609 14.1133 15.8253 13.6827 15.9788 13.2179C16.0129 13.1113 16.1537 13.0899 16.2006 13.188C16.3029 13.4098 16.3583 13.6486 16.3583 13.9044Z" fill="#F5F5F5"/>
</svg>
