<svg width="158" height="47" viewBox="0 0 158 47" fill="none" xmlns="http://www.w3.org/2000/svg">
<path d="M40.9565 13.026V19.119H38.2794V14.109C38.2794 13.4068 37.9168 12.7558 37.3238 12.3866L37.322 12.3855C37.3034 12.3738 37.2848 12.3628 37.2656 12.3517L35.7536 11.4783L30.4645 8.42307L28.5306 7.30568L28.5294 7.30626L26.9319 6.38393C26.3045 6.02117 25.531 6.02117 24.9037 6.38393L23.1862 7.37613L20.5091 8.92209L10.6131 14.6389V11.5458L17.832 7.37613L20.5091 5.8296L23.2409 4.25162L23.2421 4.25104L21.4921 3.2402C21.4758 3.23089 21.4595 3.22157 21.4426 3.21342L21.4327 3.2076C20.8164 2.87861 20.072 2.88909 19.4639 3.2402L17.7453 4.23299L17.7348 4.22717L10.6131 8.34097L9.07254 9.23069C9.01376 9.26447 8.95673 9.30173 8.90261 9.34074C8.90202 9.34133 8.90086 9.34191 8.90028 9.34249C8.84266 9.38383 8.78795 9.42809 8.73616 9.47409C8.30956 9.8549 8.05815 10.4034 8.05815 10.988V19.119H5.38102V11.3752L3.69094 12.3517C3.58677 12.4117 3.48899 12.4804 3.39878 12.5573C2.946 12.9381 2.67712 13.5046 2.67712 14.109V19.119H0V13.026C0 12.1566 0.398077 11.3444 1.06561 10.8122L6.39542 7.73365L10.6131 5.2974V5.26013L17.8 1.10906L17.8209 1.09683L19.0629 0.379464C19.9236 -0.117802 20.9805 -0.126536 21.8477 0.354426L23.1437 1.10266L27.3253 3.51853L30.4645 5.33175L31.1949 5.75332V5.7539L34.3382 7.56945L39.6057 10.6119C40.4432 11.1254 40.9565 12.039 40.9565 13.026Z" fill="#FAA21B"/>
<path d="M35.5788 16.1685V19.1184H32.9017V17.2516C32.9017 16.5266 32.5147 15.857 31.8873 15.4943L30.4643 14.6721L23.1436 10.4436L25.809 8.89062L30.4643 11.5796L33.0763 13.0883L34.1634 13.7166C35.0393 14.222 35.5788 15.1571 35.5788 16.1685Z" fill="#FAA21B"/>
<path d="M40.9565 29.6055V33.4945C40.9565 34.3639 40.5584 35.1761 39.8909 35.7083L34.5611 38.7868L30.3435 41.2231V41.2604L23.1565 45.4114L23.1356 45.4237L21.8936 46.141C21.0329 46.6383 19.976 46.647 19.1089 46.1661L17.8128 45.4178L13.6312 43.002L10.492 41.1888L9.76161 40.7672V40.7666L6.61832 38.9511L1.35078 35.9086C0.513309 35.3951 0 34.4815 0 33.4945V29.6055H2.67712V32.4115C2.67712 33.1137 3.0397 33.7647 3.63274 34.1339L3.63449 34.135C3.65311 34.1467 3.67174 34.1577 3.69094 34.1688L5.20293 35.0422L10.492 38.0974L12.4259 39.2148L12.4271 39.2142L14.0246 40.1366C14.652 40.4993 15.4255 40.4993 16.0529 40.1366L17.7703 39.1444L20.4474 37.5984L30.3435 31.8816V34.9747L23.1245 39.1444L20.4474 40.6909L17.7156 42.2689L17.7144 42.2695L19.4644 43.2803C19.4807 43.2896 19.497 43.2989 19.5139 43.3071L19.5238 43.3129C20.1401 43.6419 20.8845 43.6314 21.4927 43.2803L23.2113 42.2875L23.2217 42.2933L30.3435 38.1795L31.884 37.2898C31.9428 37.256 31.9998 37.2188 32.0539 37.1798C32.0545 37.1792 32.0557 37.1786 32.0562 37.178C32.1139 37.1367 32.1686 37.0924 32.2204 37.0464C32.647 36.6656 32.8984 36.1171 32.8984 35.5325V29.6055H35.5755V35.1453L37.2656 34.1688C37.3698 34.1088 37.4675 34.0401 37.5577 33.9632C38.0105 33.5824 38.2794 33.0159 38.2794 32.4115V29.6055H40.9565Z" fill="#FAA21B"/>
<path d="M17.8132 36.0763L15.1477 37.6293L10.4924 34.9403L7.88046 33.4316L6.79331 32.8033C5.91743 32.2979 5.37793 31.3628 5.37793 30.3514V29.6055H8.08357C8.18309 30.1965 8.54101 30.72 9.06945 31.0256L10.4924 31.8478L17.8132 36.0763Z" fill="#FAA21B"/>
<path d="M24.7288 24.3642V28.4512L22.5393 30.4036V33.6161H18.416V30.4036L16.2266 28.4512V24.3642L18.6203 21.9023V26.0511H22.3351V21.9023L24.7288 24.3642Z" fill="#FAA21B"/>
<path d="M27.3104 25.42C27.1375 26.1082 26.8628 26.7569 26.5043 27.3479L27.5635 28.6866L25.4405 30.8107L24.0943 29.7446L24.0414 29.7026L25.3334 28.5503V23.8822L24.8864 23.4222L24.5069 23.032C24.3841 22.2792 24.0559 21.5956 23.5816 21.0406C23.4518 20.8887 23.3104 20.746 23.1597 20.615C22.5125 20.0508 21.6867 19.6874 20.7776 19.6216C20.6787 19.6141 20.5791 19.6106 20.4785 19.6106C20.3778 19.6106 20.2777 19.6141 20.1787 19.6216C19.2697 19.6874 18.4438 20.0508 17.7973 20.615C17.6465 20.7466 17.5051 20.8893 17.3759 21.0412C16.901 21.5956 16.5728 22.2792 16.45 23.0315L16.0699 23.4222L15.623 23.8822V28.5503L16.915 29.7026L16.8626 29.7446L15.5165 30.8107L13.3934 28.6866L14.4526 27.3479C14.0935 26.7569 13.8194 26.1082 13.6465 25.42L11.96 25.2237V22.2203L13.6332 22.0259V22.0253C13.8019 21.3277 14.0749 20.6715 14.4346 20.0729L13.3934 18.7575L15.5165 16.6334L16.8236 17.6687C17.4248 17.3036 18.0842 17.0252 18.7855 16.8529L18.9775 15.1992H21.9794L22.1714 16.8529C22.8727 17.0252 23.5327 17.3036 24.1333 17.6687L25.4405 16.6334L27.5635 18.7575L26.5224 20.0729C26.8814 20.6715 27.1544 21.3277 27.3232 22.0253L28.997 22.2203V25.2237L27.3104 25.42Z" fill="#FAA21B"/>
<path d="M58.1535 29.6055L64.3789 14.0638H66.4688L72.6612 29.6055H69.6475L68.4046 26.2288H62.4541L61.2002 29.6055H58.1535ZM63.334 23.842H67.5247L65.4349 18.1664L63.334 23.842ZM77.7455 29.8255C74.8637 29.8255 73.7638 27.5156 73.7638 25.2168V18.6174H76.4146V24.8759C76.4146 26.3167 77.1405 27.3507 78.5154 27.3507C80.0223 27.3507 80.9902 26.5367 80.9902 24.6229V18.6174H83.652V29.6055H80.9902V28.3186C80.1103 29.4075 78.8344 29.8255 77.7455 29.8255ZM90.848 29.8255C88.7032 29.8255 87.4163 28.5716 87.4163 26.5697V20.8612H85.6454V18.6174H87.4603V15.8896L90.1 13.9758V18.6174H92.8498V20.8612H90.1V26.0968C90.1 27.1527 90.617 27.4607 91.3209 27.4607C91.8819 27.4607 92.4868 27.2407 92.8498 27.0647V29.4955C92.4428 29.6495 91.6509 29.8255 90.848 29.8255ZM99.9248 29.8255C96.5261 29.8255 94.2933 27.1967 94.2933 24.0839C94.2933 20.9822 96.5261 18.3864 99.9248 18.3864C103.324 18.3864 105.556 20.9822 105.556 24.0839C105.556 27.1967 103.324 29.8255 99.9248 29.8255ZM99.9248 27.5156C101.96 27.5156 102.763 25.8878 102.763 24.0839C102.763 22.2801 101.96 20.7072 99.9248 20.7072C97.901 20.7072 97.0871 22.2801 97.0871 24.0839C97.0871 25.8878 97.901 27.5156 99.9248 27.5156ZM108.254 29.6055V14.0638H111.048V20.5532H117.856V14.0638H120.65V29.6055H117.856V23.116H111.048V29.6055H108.254ZM124.986 34.3351L127.01 29.3085L122.709 18.6174H125.657L128.429 26.2508L131.244 18.6174H134.192L127.912 34.3351H124.986ZM138.671 29.6055L134.195 18.6174H137.121L139.782 26.1408L142.455 18.6174H145.37L140.882 29.6055H138.671ZM151.235 29.8255C147.451 29.8255 145.67 27.1087 145.67 24.1499C145.67 21.2902 147.341 18.3864 151.059 18.3864C154.909 18.3864 156.152 21.4772 156.152 23.93C156.152 24.3809 156.108 24.8319 156.053 24.9859H148.507C148.738 26.4267 149.53 27.3947 151.257 27.3947C152.247 27.3947 153.127 27.0867 153.897 26.2288L155.745 27.8456C154.546 29.1765 153.083 29.8255 151.235 29.8255ZM148.507 23.05H153.512C153.512 22.808 153.49 22.5771 153.424 22.3571C153.149 21.2242 152.203 20.6412 151.037 20.6412C149.453 20.6412 148.76 21.6751 148.507 23.05Z" fill="#494949"/>
</svg>
