<svg width="24" height="25" viewBox="0 0 24 25" fill="none" xmlns="http://www.w3.org/2000/svg">
<path d="M8.67188 14.4744C8.67188 15.7644 9.66188 16.8044 10.8919 16.8044H13.4019C14.4719 16.8044 15.3419 15.8944 15.3419 14.7744C15.3419 13.5544 14.8119 13.1244 14.0219 12.8444L9.99187 11.4444C9.20187 11.1644 8.67188 10.7344 8.67188 9.51437C8.67188 8.39437 9.54187 7.48438 10.6119 7.48438H13.1219C14.3519 7.48438 15.3419 8.52437 15.3419 9.81437" stroke="#F5F5F5" strokeWidth="1.5" strokeLinecap="round" strokeLinejoin="round"/>
<path d="M12 6.14844V18.1484" stroke="#F5F5F5" strokeWidth="1.5" strokeLinecap="round" strokeLinejoin="round"/>
<path fill-rule="evenodd" clip-rule="evenodd" d="M12 22.1484C6.47715 22.1484 2 17.6713 2 12.1484C2 6.62559 6.47715 2.14844 12 2.14844C17.5228 2.14844 22 6.62559 22 12.1484C22 17.6713 17.5228 22.1484 12 22.1484Z" stroke="#F5F5F5" strokeWidth="1.5" strokeLinecap="round" strokeLinejoin="round"/>
</svg>
