<svg width="24" height="25" viewBox="0 0 24 25" fill="none" xmlns="http://www.w3.org/2000/svg">
<path fill-rule="evenodd" clip-rule="evenodd" d="M12 22.1484C6.47715 22.1484 2 17.6713 2 12.1484C2 6.62559 6.47715 2.14844 12 2.14844C17.5228 2.14844 22 6.62559 22 12.1484C22 17.6713 17.5228 22.1484 12 22.1484Z" stroke="#F5F5F5" strokeWidth="1.5" strokeLinecap="round" strokeLinejoin="round"/>
<path d="M8.00977 14.6603C8.18977 14.9603 8.40976 15.2404 8.65976 15.4904C10.4998 17.3304 13.4898 17.3304 15.3398 15.4904C16.0898 14.7404 16.5198 13.7903 16.6598 12.8203" stroke="#F5F5F5" strokeWidth="1.5" strokeLinecap="round" strokeLinejoin="round"/>
<path d="M7.33984 11.4797C7.47984 10.4997 7.90985 9.55969 8.65985 8.80969C10.4999 6.96969 13.4898 6.96969 15.3398 8.80969C15.5998 9.06969 15.8098 9.3497 15.9898 9.6397" stroke="#F5F5F5" strokeWidth="1.5" strokeLinecap="round" strokeLinejoin="round"/>
<path d="M7.82031 17.3262V14.6562H10.4903" stroke="#F5F5F5" strokeWidth="1.5" strokeLinecap="round" strokeLinejoin="round"/>
<path d="M16.1797 6.96875V9.63873H13.5098" stroke="#F5F5F5" strokeWidth="1.5" strokeLinecap="round" strokeLinejoin="round"/>
</svg>
