<svg width="40" height="40" viewBox="0 0 40 40" fill="none" xmlns="http://www.w3.org/2000/svg">
<path d="M19.9997 36.6663C29.2047 36.6663 36.6663 29.2047 36.6663 19.9997C36.6663 10.7947 29.2047 3.33301 19.9997 3.33301C10.7947 3.33301 3.33301 10.7947 3.33301 19.9997C3.33301 29.2047 10.7947 36.6663 19.9997 36.6663Z" fill="#A5A5A5"/>
<path d="M22.1002 27.1336C21.7835 27.1336 21.4669 27.0169 21.2169 26.7669L15.3335 20.8836C15.1011 20.6484 14.9707 20.331 14.9707 20.0003C14.9707 19.6695 15.1011 19.3522 15.3335 19.1169L21.2169 13.2336C21.7002 12.7503 22.5002 12.7503 22.9835 13.2336C23.4669 13.7169 23.4669 14.5169 22.9835 15.0003L17.9835 20.0003L22.9835 25.0003C23.4669 25.4836 23.4669 26.2836 22.9835 26.7669C22.8699 26.8861 22.7327 26.9803 22.5806 27.0435C22.4285 27.1066 22.2649 27.1373 22.1002 27.1336Z" fill="#F5F5F5"/>
</svg>
