<svg width="24" height="25" viewBox="0 0 24 25" fill="none" xmlns="http://www.w3.org/2000/svg">
<path d="M22 4.12844C22 2.71844 21.36 2.14844 19.77 2.14844H15.73C14.14 2.14844 13.5 2.71844 13.5 4.12844V8.65844C13.5 10.0784 14.14 10.6384 15.73 10.6384H19.77C21.36 10.6484 22 10.0784 22 8.66844V4.12844Z" stroke="#F5F5F5" strokeWidth="1.5" strokeLinecap="round" strokeLinejoin="round"/>
<path d="M22 15.8784C22 14.2884 21.36 13.6484 19.77 13.6484H15.73C14.14 13.6484 13.5 14.2884 13.5 15.8784V19.9184C13.5 21.5084 14.14 22.1484 15.73 22.1484H19.77C21.36 22.1484 22 21.5084 22 19.9184V15.8784Z" stroke="#F5F5F5" strokeWidth="1.5" strokeLinecap="round" strokeLinejoin="round"/>
<path d="M10.5 4.12844C10.5 2.71844 9.86 2.14844 8.27 2.14844H4.23C2.64 2.14844 2 2.71844 2 4.12844V8.65844C2 10.0784 2.64 10.6384 4.23 10.6384H8.27C9.86 10.6484 10.5 10.0784 10.5 8.66844V4.12844Z" stroke="#F5F5F5" strokeWidth="1.5" strokeLinecap="round" strokeLinejoin="round"/>
<path d="M10.5 15.8784C10.5 14.2884 9.86 13.6484 8.27 13.6484H4.23C2.64 13.6484 2 14.2884 2 15.8784V19.9184C2 21.5084 2.64 22.1484 4.23 22.1484H8.27C9.86 22.1484 10.5 21.5084 10.5 19.9184V15.8784Z" stroke="#F5F5F5" strokeWidth="1.5" strokeLinecap="round" strokeLinejoin="round"/>
</svg>
