<svg width="27" height="26" viewBox="0 0 27 26" fill="none" xmlns="http://www.w3.org/2000/svg">
<path d="M21 9V14C21 19 19 21 14 21H8C3 21 1 19 1 14V8C1 3 3 1 8 1H13" stroke="#FAA21B" strokeWidth="1.5" strokeLinecap="round" strokeLinejoin="round"/>
<path d="M17 9C14 9 13 8 13 5V1L21 9H17Z" stroke="#FAA21B" strokeWidth="1.5" strokeLinecap="round" strokeLinejoin="round"/>
<path d="M25 12V17C25 22 23 24 18 24H12C7 24 5 22 5 17V11C5 6 7 4 12 4H17" fill="white"/>
<path d="M25 12V17C25 22 23 24 18 24H12C7 24 5 22 5 17V11C5 6 7 4 12 4H17" stroke="#FAA21B" strokeWidth="1.5" strokeLinecap="round" strokeLinejoin="round"/>
<path d="M21 12C18 12 17 11 17 8V4L25 12H21Z" stroke="#FAA21B" strokeWidth="1.5" strokeLinecap="round" strokeLinejoin="round"/>
</svg>
