<svg width="50" height="57" viewBox="0 0 50 57" fill="none" xmlns="http://www.w3.org/2000/svg">
<path d="M50 15.8941V23.3287H46.7317V17.2157C46.7317 16.3588 46.2891 15.5645 45.5651 15.114L45.563 15.1126C45.5403 15.0984 45.5175 15.0849 45.4941 15.0714L43.6482 14.0057L37.1913 10.2777L34.8303 8.91429L34.8289 8.915L32.8786 7.78959C32.1127 7.34695 31.1685 7.34695 30.4026 7.78959L28.3059 9.00026L25.0377 10.8866L12.9565 17.8622V14.0881L21.7694 9.00026L25.0377 7.1132L28.3727 5.18777L28.3741 5.18706L26.2377 3.95365C26.2178 3.94229 26.1979 3.93092 26.1773 3.92097L26.1652 3.91387C25.4128 3.51244 24.5041 3.52523 23.7616 3.95365L21.6635 5.16504L21.6508 5.15793L12.9565 10.1775L11.0758 11.2632C11.0041 11.3044 10.9344 11.3499 10.8684 11.3975C10.8677 11.3982 10.8662 11.3989 10.8655 11.3996C10.7952 11.45 10.7284 11.504 10.6652 11.5602C10.1444 12.0248 9.83744 12.6941 9.83744 13.4074V23.3287H6.56919V13.8799L4.50593 15.0714C4.37875 15.1446 4.25939 15.2284 4.14926 15.3222C3.5965 15.7869 3.26825 16.4782 3.26825 17.2157V23.3287H0V15.8941C0 14.8334 0.485975 13.8422 1.30091 13.1929L7.80757 9.4365L12.9565 6.46381V6.41834L21.7303 1.35326L21.7559 1.33834L23.2721 0.463017C24.3229 -0.143741 25.6132 -0.154398 26.6718 0.432466L28.254 1.34545L33.3589 4.29327L37.1913 6.50573L38.083 7.02013V7.02084L41.9203 9.23615L48.351 12.9485C49.3733 13.5751 50 14.6899 50 15.8941Z" fill="#FAA21B"/>
<path d="M43.4349 19.732V23.3313H40.1667V21.0535C40.1667 20.1689 39.6942 19.3519 38.9283 18.9092L37.1912 17.906L28.2539 12.7464L31.508 10.8516L37.1912 14.1326L40.3798 15.9735L41.707 16.7401C42.7763 17.3568 43.4349 18.4979 43.4349 19.732Z" fill="#FAA21B"/>
<path d="M50 36.125V40.8704C50 41.9311 49.514 42.9223 48.6991 43.5716L42.1924 47.328L37.0435 50.3007V50.3462L28.2697 55.4112L28.2441 55.4262L26.7279 56.3015C25.6771 56.9082 24.3868 56.9189 23.3282 56.332L21.746 55.4191L16.6411 52.4712L12.8087 50.2588L11.917 49.7444V49.7437L8.07969 47.5284L1.64905 43.8161C0.626652 43.1894 0 42.0746 0 40.8704V36.125H3.26825V39.5488C3.26825 40.4057 3.71089 41.2 4.43488 41.6505L4.43701 41.6519C4.45974 41.6661 4.48248 41.6796 4.50593 41.6931L6.35178 42.7588L12.8087 46.4868L15.1697 47.8502L15.1711 47.8495L17.1214 48.9749C17.8873 49.4176 18.8315 49.4176 19.5974 48.9749L21.6941 47.7642L24.9623 45.8779L37.0435 38.9023V42.6764L28.2306 47.7642L24.9623 49.6513L21.6273 51.5767L21.6259 51.5774L23.7623 52.8108C23.7822 52.8222 23.8021 52.8336 23.8227 52.8435L23.8348 52.8506C24.5872 53.2521 25.4959 53.2393 26.2384 52.8108L28.3365 51.5995L28.3492 51.6066L37.0435 46.587L38.9242 45.5013C38.9959 45.4601 39.0656 45.4147 39.1316 45.3671C39.1324 45.3663 39.1338 45.3656 39.1345 45.3649C39.2048 45.3145 39.2716 45.2605 39.3348 45.2043C39.8556 44.7397 40.1626 44.0704 40.1626 43.3571V36.125H43.4308V42.8846L45.4941 41.6931C45.6213 41.6199 45.7406 41.5361 45.8507 41.4423C46.4035 40.9776 46.7317 40.2863 46.7317 39.5488V36.125H50Z" fill="#FAA21B"/>
<path d="M21.7455 44.0207L18.4914 45.9156L12.8082 42.6345L9.61956 40.7936L8.29236 40.027C7.22308 39.4103 6.56445 38.2693 6.56445 37.0351V36.125H9.86752C9.98901 36.8461 10.426 37.4849 11.0711 37.8579L12.8082 38.8611L21.7455 44.0207Z" fill="#FAA21B"/>
</svg>
