<svg width="61" height="69" viewBox="0 0 61 69" fill="none" xmlns="http://www.w3.org/2000/svg">
<path d="M60.5 19.0827V28.0087H56.5781V20.6693C56.5781 19.6405 56.0469 18.6869 55.1782 18.146L55.1756 18.1443C55.1483 18.1273 55.121 18.1111 55.0929 18.0949L52.8779 16.8153L45.1296 12.3395L42.2964 10.7026L42.2947 10.7034L39.9543 9.35225C39.0353 8.82082 37.9022 8.82082 36.9831 9.35225L34.4671 10.8058L30.5452 13.0706L16.0478 21.4455V16.9143L26.6233 10.8058L30.5452 8.54018L34.5472 6.22849L34.5489 6.22764L31.9852 4.74679C31.9613 4.73315 31.9375 4.7195 31.9127 4.70756L31.8982 4.69903C30.9954 4.21707 29.9049 4.23242 29.0139 4.74679L26.4962 6.2012L26.4809 6.19267L16.0478 12.2193L13.791 13.5227C13.7049 13.5721 13.6213 13.6267 13.542 13.6839C13.5412 13.6847 13.5395 13.6856 13.5386 13.6865C13.4542 13.747 13.3741 13.8118 13.2982 13.8792C12.6732 14.4371 12.3049 15.2407 12.3049 16.0971V28.0087H8.38302V16.6644L5.90711 18.0949C5.7545 18.1827 5.61126 18.2834 5.47911 18.396C4.8158 18.9539 4.4219 19.7838 4.4219 20.6693V28.0087H0.5V19.0827C0.5 17.8091 1.08317 16.6191 2.06109 15.8395L9.86909 11.3296L16.0478 7.76052V7.70592L26.5764 1.62474L26.6071 1.60682L28.4265 0.555903C29.6875 -0.172577 31.2358 -0.185372 32.5061 0.519223L34.4049 1.61536L40.5307 5.15454L45.1296 7.81085L46.1995 8.42843V8.42929L50.8044 11.089L58.5211 15.546C59.748 16.2984 60.5 17.6368 60.5 19.0827Z" fill="#FAA21B"/>
<path d="M52.6225 23.6853V28.0067H48.7006V25.272C48.7006 24.21 48.1336 23.229 47.2145 22.6975L45.13 21.4931L34.4053 15.2984L38.3101 13.0234L45.13 16.9627L48.9564 19.1729L50.549 20.0933C51.8322 20.8337 52.6225 22.2036 52.6225 23.6853Z" fill="#FAA21B"/>
<path d="M60.5 43.3672V49.0645C60.5 50.3381 59.9168 51.528 58.9389 52.3077L51.1309 56.8176L44.9522 60.3867V60.4413L34.4236 66.5224L34.3929 66.5404L32.5735 67.5913C31.3125 68.3197 29.7642 68.3326 28.4939 67.628L26.5951 66.5318L20.4693 62.9926L15.8704 60.3363L14.8005 59.7187V59.7179L10.1956 57.0582L2.47886 52.6011C1.25198 51.8488 0.5 50.5104 0.5 49.0645V43.3672H4.4219V47.4779C4.4219 48.5066 4.95307 49.4603 5.82185 50.0011L5.82441 50.0028C5.85169 50.0199 5.87898 50.0361 5.90711 50.0523L8.12213 51.3318L15.8704 55.8076L18.7036 57.4446L18.7053 57.4437L21.0457 58.7949C21.9647 59.3264 23.0978 59.3264 24.0169 58.7949L26.5329 57.3414L30.4548 55.0766L44.9522 46.7016V51.2329L34.3767 57.3414L30.4548 59.607L26.4528 61.9187L26.4511 61.9195L29.0148 63.4004C29.0387 63.414 29.0625 63.4277 29.0873 63.4396L29.1018 63.4482C30.0046 63.9301 31.0951 63.9147 31.9861 63.4004L34.5037 61.946L34.5191 61.9545L44.9522 55.9279L47.209 54.6245C47.2951 54.575 47.3787 54.5204 47.458 54.4633C47.4588 54.4624 47.4605 54.4616 47.4614 54.4607C47.5458 54.4002 47.6259 54.3353 47.7018 54.2679C48.3268 53.7101 48.6951 52.9065 48.6951 52.0501V43.3672H52.617V51.4828L55.0929 50.0523C55.2455 49.9644 55.3887 49.8638 55.5209 49.7512C56.1842 49.1933 56.5781 48.3633 56.5781 47.4779V43.3672H60.5Z" fill="#FAA21B"/>
<path d="M26.5952 52.8468L22.6903 55.1218L15.8705 51.1826L12.0441 48.9724L10.4514 48.052C9.16828 47.3116 8.37793 45.9416 8.37793 44.4599V43.3672H12.3416C12.4874 44.233 13.0117 44.9999 13.7859 45.4477L15.8705 46.6522L26.5952 52.8468Z" fill="#FAA21B"/>
<path d="M36.7269 35.6925V41.6799L33.5195 44.54V49.2462H27.4789V44.54L24.2715 41.6799V35.6925L27.7782 32.0859V38.1637H33.2202V32.0859L36.7269 35.6925Z" fill="#FAA21B"/>
<path d="M40.5084 37.2387C40.2551 38.247 39.8527 39.1972 39.3275 40.063L40.8792 42.0241L37.769 45.136L35.797 43.5741L35.7194 43.5127L37.6121 41.8245V34.9859L36.9573 34.312L36.4014 33.7405C36.2215 32.6375 35.7407 31.6361 35.0458 30.8231C34.8557 30.6005 34.6485 30.3915 34.4277 30.1996C33.4796 29.373 32.2698 28.8407 30.9381 28.7443C30.7931 28.7332 30.6473 28.7281 30.4998 28.7281C30.3523 28.7281 30.2057 28.7332 30.0608 28.7443C28.729 28.8407 27.5192 29.373 26.572 30.1996C26.3511 30.3924 26.144 30.6013 25.9547 30.824C25.259 31.6361 24.7781 32.6375 24.5982 33.7396L24.0415 34.312L23.3867 34.9859V41.8245L25.2794 43.5127L25.2027 43.5741L23.2307 45.136L20.1204 42.0241L21.6721 40.063C21.1461 39.1972 20.7445 38.247 20.4913 37.2387L18.0205 36.9512V32.5513L20.4717 32.2664V32.2656C20.7189 31.2437 21.1188 30.2823 21.6457 29.4054L20.1204 27.4784L23.2307 24.3666L25.1456 25.8833C26.0263 25.3484 26.9923 24.9407 28.0197 24.6882L28.301 22.2656H32.6987L32.98 24.6882C34.0074 24.9407 34.9742 25.3484 35.8541 25.8833L37.769 24.3666L40.8792 27.4784L39.354 29.4054C39.88 30.2823 40.2799 31.2437 40.5271 32.2656L42.9792 32.5513V36.9512L40.5084 37.2387Z" fill="#FAA21B"/>
</svg>
