<svg width="40" height="40" viewBox="0 0 40 40" fill="none" xmlns="http://www.w3.org/2000/svg">
<path d="M20 10.7344V16.2844" stroke="#494949" strokeWidth="1.5" strokeLinecap="round"/>
<path d="M8.93316 14.4359V17.9359C8.93316 19.0693 8.4665 20.7693 7.88316 21.7359L5.7665 25.2693C4.4665 27.4526 5.3665 29.8859 7.7665 30.6859C15.7332 33.3359 24.3498 33.3359 32.3165 30.6859C34.5665 29.9359 35.5332 27.3026 34.3165 25.2693L32.1998 21.7359C31.6165 20.7693 31.1498 19.0526 31.1498 17.9359V14.4359C31.1332 8.33594 26.1332 3.33594 20.0332 3.33594C13.8998 3.33594 8.93316 8.3026 8.93316 14.4359Z" stroke="#494949" strokeWidth="1.5" strokeLinecap="round"/>
<path d="M25.5502 31.3672C25.5502 34.4172 23.0502 36.9172 20.0002 36.9172C18.4835 36.9172 17.0835 36.2839 16.0835 35.2839C15.0835 34.2839 14.4502 32.8839 14.4502 31.3672" stroke="#494949" strokeWidth="1.5"/>
</svg>
